<mxfile host="app.diagrams.net" agent="Mozilla/5.0 (Windows NT 10.0; Win64; x64) AppleWebKit/537.36 (KHTML, like Gecko) Chrome/132.0.0.0 Safari/537.36" version="26.0.7">
  <diagram name="AzureAI" id="OpVehoEWyaYxuq4tvKD_">
    <mxGraphModel dx="1941" dy="1049" grid="1" gridSize="10" guides="1" tooltips="1" connect="1" arrows="1" fold="1" page="1" pageScale="1" pageWidth="850" pageHeight="1100" math="0" shadow="0">
      <root>
        <mxCell id="0" />
        <mxCell id="1" parent="0" />
        <mxCell id="WMn-b6ElxN8xJxoVkPEa-15" value="&lt;span style=&quot;font-size: 21px;&quot;&gt;&lt;b&gt;Member Notes using Tableau&lt;/b&gt;&lt;/span&gt;" style="text;html=1;align=left;verticalAlign=middle;resizable=0;points=[];autosize=1;strokeColor=none;fillColor=none;fontStyle=4" parent="1" vertex="1">
          <mxGeometry x="-570" y="20" width="310" height="40" as="geometry" />
        </mxCell>
        <mxCell id="HIhvMTrTWmDsbmCb-TFr-9" style="edgeStyle=orthogonalEdgeStyle;rounded=0;orthogonalLoop=1;jettySize=auto;html=1;" parent="1" edge="1">
          <mxGeometry relative="1" as="geometry">
            <mxPoint x="-405.60000000000014" y="624" as="targetPoint" />
            <mxPoint x="-406" y="484" as="sourcePoint" />
          </mxGeometry>
        </mxCell>
        <mxCell id="HIhvMTrTWmDsbmCb-TFr-1" value="DataBricks" style="image;aspect=fixed;html=1;points=[];align=center;fontSize=12;image=img/lib/azure2/analytics/Azure_Databricks.svg;" parent="1" vertex="1">
          <mxGeometry x="-437" y="384" width="62.8" height="68" as="geometry" />
        </mxCell>
        <mxCell id="HIhvMTrTWmDsbmCb-TFr-4" style="edgeStyle=orthogonalEdgeStyle;rounded=0;orthogonalLoop=1;jettySize=auto;html=1;" parent="1" source="HIhvMTrTWmDsbmCb-TFr-2" edge="1">
          <mxGeometry relative="1" as="geometry">
            <mxPoint x="-457.0000000000002" y="424" as="targetPoint" />
          </mxGeometry>
        </mxCell>
        <mxCell id="HIhvMTrTWmDsbmCb-TFr-2" value="SF" style="ellipse;shape=cloud;whiteSpace=wrap;html=1;" parent="1" vertex="1">
          <mxGeometry x="-727" y="374" width="150" height="100" as="geometry" />
        </mxCell>
        <mxCell id="HIhvMTrTWmDsbmCb-TFr-6" style="edgeStyle=orthogonalEdgeStyle;rounded=0;orthogonalLoop=1;jettySize=auto;html=1;" parent="1" source="HIhvMTrTWmDsbmCb-TFr-5" edge="1">
          <mxGeometry relative="1" as="geometry">
            <mxPoint x="-407" y="374" as="targetPoint" />
          </mxGeometry>
        </mxCell>
        <mxCell id="HIhvMTrTWmDsbmCb-TFr-5" value="Genesys" style="ellipse;shape=cloud;whiteSpace=wrap;html=1;" parent="1" vertex="1">
          <mxGeometry x="-467" y="84" width="120" height="80" as="geometry" />
        </mxCell>
        <mxCell id="HIhvMTrTWmDsbmCb-TFr-7" value="transcript&lt;div&gt;for each call&lt;/div&gt;" style="dashed=0;outlineConnect=0;html=1;align=center;labelPosition=center;verticalLabelPosition=bottom;verticalAlign=top;shape=mxgraph.weblogos.json" parent="1" vertex="1">
          <mxGeometry x="-387" y="214" width="57" height="62.8" as="geometry" />
        </mxCell>
        <mxCell id="HIhvMTrTWmDsbmCb-TFr-8" value="Tableau" style="shape=image;verticalLabelPosition=bottom;labelBackgroundColor=default;verticalAlign=top;aspect=fixed;imageAspect=0;image=data:image/jpeg,/9j/4AAQSkZJRgABAQAAAQABAAD/2wCEAAkGBwgHBgkIBwgKCgkLDRYPDQwMDRsUFRAWIB0iIiAdHx8kKDQsJCYxJx8fLT0tMTU3Ojo6Iys/RD84QzQ5OjcBCgoKDQwNGg8PGjclHyU3Nzc3Nzc3Nzc3Nzc3Nzc3Nzc3Nzc3Nzc3Nzc3Nzc3Nzc3Nzc3Nzc3Nzc3Nzc3Nzc3N//AABEIADgAOAMBEQACEQEDEQH/xAAYAAEBAQEBAAAAAAAAAAAAAAAABAUGB//EACwQAAAFAwMDAgYDAAAAAAAAAAECAwQRAAUSEyExFDJhFZEGFkFRcYEkUuH/xAAZAQEAAwEBAAAAAAAAAAAAAAAAAgMEAQX/xAAmEQACAgEDBAEFAQAAAAAAAAAAAQIRAxITQSEiMWFRBBQkQvCB/9oADAMBAAIRAxEAPwD3GgFAKAUAoBQCgFAKAnauiOTLlIUwCioKZp+o+PeqseVZHJLh0TnjcEm+VZnC+eergToV8dCdPUJ/bu7v9q+lRRqerwXPn6bI7UqhDmFysCJcY2EQHcfG1cSsk5VRXXCQoBQE7tJZYpSoOjNxAZESkA0h+6ryQlJdsqJwlGL7lZj2tq7Ms+wuJyYuRA0JFHIYDfisH02LI5TqfPwvhGvPkx1G4cfL9mp1Lb1bpsB6rQzzjbCeJ/Nb91bm3zVmXae3ucXRz9+YvyL23Uu6imb0oElAgaYwO/G/7rTFrr0Mk4ytdeTobei4QKcjp8Z2eZATEKUSh9oCq21wWxTXlldcJCgMV2Fx9YbYC17FdOSm4kvO/PFSVUVvVqRWoodRusFqUaGdEOBVJ3KBtpA0bzFUzUtL26s0wSUlu3X94MCL38ydzHq+k5g2GGXvM15/5H3HF17qrPR/G+2506vV3RuCdVNmmFyOyB6Y4lQnYgqb4gE7z+N+a9LFr09/n0eZl29XZ49mLZwu/wAzXXIWEy36iAP24jGPmPvV8tOhFSuzrKqJCgIro4et0yGYMAeHE0GKKwJ4h95EN6474LMcYSffKv8ALOS+GH13TeXsUbKVUT3ExlQ6spdM2JZLxvtG9Vxbt9D0vq8eHRjuf69Onnqzq9Nn63nqD13Tdn008ufepbS17nPg83dlt7fF2cf8V3C9KO7HrWIqWFzIZL+aU2qbE0F422+ta8cY1LrwZZuVrpydhaXD5ymoe424rFQDQUoLgrkEcyABFUySXh2WpvkvqJ0UAoCK3WxC3qPFEBOJna4rqZDMGEADbxsFcSotyZpZFFS/VUYY2W4fMQH9VuGn0gh1GCXOfZ2R54nzV2tafBRTs27la0LidkdwY8s3BXCeIxJgAQ38bjUIycbo643RdUTooBQCgFAKAUAoBQH/2Q==;" parent="1" vertex="1">
          <mxGeometry x="-435" y="633.25" width="56" height="56" as="geometry" />
        </mxCell>
        <mxCell id="HIhvMTrTWmDsbmCb-TFr-10" value="&lt;div&gt;Get&lt;/div&gt;&lt;div&gt;&lt;ul&gt;&lt;li&gt;Cases&lt;/li&gt;&lt;li&gt;Notes&lt;/li&gt;&lt;li&gt;Voice Calls&lt;/li&gt;&lt;/ul&gt;&lt;/div&gt;&lt;div&gt;&lt;br&gt;&lt;/div&gt;" style="text;html=1;align=left;verticalAlign=middle;whiteSpace=wrap;rounded=0;" parent="1" vertex="1">
          <mxGeometry x="-697" y="497" width="115" height="70" as="geometry" />
        </mxCell>
        <mxCell id="HIhvMTrTWmDsbmCb-TFr-11" value="&lt;div&gt;Get&lt;/div&gt;&lt;div&gt;&lt;ul&gt;&lt;li&gt;&lt;span style=&quot;background-color: transparent; color: light-dark(rgb(0, 0, 0), rgb(255, 255, 255));&quot;&gt;Transcripts for each Voice Calls&lt;/span&gt;&lt;/li&gt;&lt;/ul&gt;&lt;/div&gt;&lt;div&gt;&lt;br&gt;&lt;/div&gt;" style="text;html=1;align=left;verticalAlign=middle;whiteSpace=wrap;rounded=0;" parent="1" vertex="1">
          <mxGeometry x="-347" y="104" width="215" height="70" as="geometry" />
        </mxCell>
      </root>
    </mxGraphModel>
  </diagram>
</mxfile>
